HIERARCHY
ROOT hip
{
	OFFSET 0.000000 0.000000 0.000000 
	CHANNELS 6 Xposition Yposition Zposition Xrotation Zrotation Yrotation
	JOINT abdomen
	{
		OFFSET 0.000000 3.402643 0.000000 
		CHANNELS 3 Xrotation Zrotation Yrotation
		JOINT chest
		{
			OFFSET 0.000000 8.438565 -0.680529 
			CHANNELS 3 Xrotation Zrotation Yrotation
			JOINT neck
			{
				OFFSET 0.000000 10.207942 -0.272212 
				CHANNELS 3 Xrotation Zrotation Yrotation
				JOINT head
				{
					OFFSET 0.000000 3.130431 0.000000 
					CHANNELS 3 Xrotation Zrotation Yrotation
					End Site
					{
						OFFSET 0.000000 3.130435 0.000000 
					}
				}
			}
			JOINT lCollar
			{
				OFFSET 3.470700 6.669187 -0.816635 
				CHANNELS 3 Yrotation Zrotation Xrotation
				JOINT lShldr
				{
					OFFSET 3.198488 0.000000 0.000000 
					CHANNELS 3 Zrotation Yrotation Xrotation
					JOINT lForeArm
					{
						OFFSET 10.139888 0.000000 0.000000 
						CHANNELS 3 Yrotation Zrotation Xrotation
						JOINT lHand
						{
							OFFSET 8.370511 0.000000 0.000000 
							CHANNELS 3 Zrotation Yrotation Xrotation
							End Site
							{
								OFFSET 4.083176 0.000000 0.000000 
							}
						}
					}
				}
			}
			JOINT rCollar
			{
				OFFSET -3.470700 6.669187 -0.816635 
				CHANNELS 3 Yrotation Zrotation Xrotation
				JOINT rShldr
				{
					OFFSET -3.198488 0.000000 0.000000 
					CHANNELS 3 Zrotation Yrotation Xrotation
					JOINT rForeArm
					{
						OFFSET -10.139888 0.000000 0.000000 
						CHANNELS 3 Yrotation Zrotation Xrotation
						JOINT rHand
						{
							OFFSET -8.370511 0.000000 0.000000 
							CHANNELS 3 Zrotation Yrotation Xrotation
							End Site
							{
								OFFSET -4.083176 0.000000 0.000000 
							}
						}
					}
				}
			}
		}
	}
	JOINT lThigh
	{
		OFFSET 5.308129 -1.633274 1.361059 
		CHANNELS 3 Xrotation Zrotation Yrotation
		JOINT lShin
		{
			OFFSET -2.041588 -20.007561 0.000000 
			CHANNELS 3 Xrotation Zrotation Yrotation
			JOINT lFoot
			{
				OFFSET 0.000000 -19.190928 -1.224953 
				CHANNELS 3 Xrotation Yrotation Zrotation
				End Site
				{
					OFFSET 0.000000 -2.449906 4.627600 
				}
			}
		}
	}
	JOINT rThigh
	{
		OFFSET -5.308129 -1.633274 1.361059 
		CHANNELS 3 Xrotation Zrotation Yrotation
		JOINT rShin
		{
			OFFSET 2.041588 -20.007561 0.000000 
			CHANNELS 3 Xrotation Zrotation Yrotation
			JOINT rFoot
			{
				OFFSET 0.000000 -19.190928 -1.224953 
				CHANNELS 3 Xrotation Yrotation Zrotation
				End Site
				{
					OFFSET 0.000000 -2.449906 4.627600 
				}
			}
		}
	}
}
MOTION
Frames: 17
Frame Time: 0.033333
0.453259 49.287720 -10.676356 -4.338643 -1.082759 2.725046 0.000000 0.000000 0.000000 -0.265040 1.444821 1.494650 2.734370 0.858876 1.953345 5.597199 0.283199 0.302779 -0.008912 9.024762 -2.809541 0.054195 5.175513 -20.007801 -5.815794 -3.855115 2.628634 -7.813380 -11.415339 -12.924326 -1.885211 -9.094127 -3.015487 4.159667 -20.443851 -7.731082 12.767096 5.683250 2.781657 -22.941729 -10.335533 -7.903931 4.666152 11.345901 6.689810 15.036494 -3.389815 13.123049 -12.203641 0.545514 -5.133556 8.879827 -7.056212 -3.998019 5.690967 3.512933 -6.022945 -8.097819 -0.458941 6.087207 
0.445958 49.290245 -10.688814 -4.220443 -1.073030 2.695754 0.000000 0.000000 0.000000 -0.322875 1.464339 1.504413 2.712973 0.780768 2.011931 5.548323 0.292965 0.283249 0.065849 8.845785 -2.906006 0.171978 5.179123 -20.066591 -5.827600 -3.798022 2.638275 -7.763381 -11.443232 -12.762542 -1.878060 -9.239060 -3.105360 4.301082 -20.394642 -7.836134 12.769477 5.634480 2.781662 -22.861200 -10.472404 -7.864471 4.440292 11.255091 6.534540 15.142270 -3.350022 13.266483 -12.215672 0.545633 -5.101030 8.679757 -7.108848 -3.976855 5.817594 3.473567 -5.888652 -8.097894 -0.442305 6.148540 
0.440044 49.288475 -10.691796 -4.121323 -1.073098 2.617643 0.000000 0.000000 0.000000 -0.370455 1.464306 1.553475 2.595194 0.731930 2.099812 5.607275 0.341792 0.302787 0.143703 8.793408 -2.984709 0.229745 5.097658 -20.103590 -5.659661 -3.847964 2.629362 -7.997042 -11.567495 -12.722488 -1.824172 -9.269490 -3.184097 4.270185 -20.429232 -7.790251 12.721121 5.639723 2.772719 -22.830393 -10.549141 -7.833773 4.323918 11.236564 6.439762 15.159234 -3.368349 13.292123 -12.247793 0.591620 -5.121597 8.400877 -7.142735 -3.964550 6.001887 3.463014 -6.022515 -8.107511 -0.455867 6.174645 
0.454644 49.285965 -10.665797 -4.310171 -1.112050 2.695752 0.000000 0.000000 0.000000 -0.263773 1.474095 1.514176 2.705753 0.849081 2.021841 5.606467 0.195310 0.293000 0.120414 9.038107 -2.819205 0.082444 5.043934 -20.116543 -5.601561 -3.835526 2.629629 -7.833638 -11.527309 -12.568424 -1.956581 -9.149088 -3.015383 4.330382 -20.307491 -7.999289 12.705372 5.578108 2.762504 -22.819942 -10.471358 -8.167452 4.957641 11.371871 6.751723 14.505284 -3.348841 12.959838 -11.988442 0.588841 -5.456968 8.732626 -6.986158 -3.900146 5.902100 3.440426 -6.069095 -8.172991 -0.449846 6.114220 
0.454515 49.288727 -10.662236 -4.339088 -1.112067 2.676225 0.000000 0.000000 0.000000 -0.234728 1.474101 1.504413 2.742943 0.819831 1.963109 5.597194 0.312496 0.273487 0.047232 9.099993 -2.769444 0.010445 5.109619 -20.071198 -5.620628 -3.846175 2.629540 -7.592569 -11.402304 -12.835080 -1.903579 -9.035718 -2.964180 4.077609 -20.415808 -7.666274 12.735419 5.730605 2.781974 -22.840967 -10.672186 -8.075680 4.712409 11.369107 6.733861 15.024565 -3.369367 12.950589 -12.253810 0.560397 -5.137554 8.801756 -7.026308 -3.934931 5.901135 3.509072 -5.939837 -8.184150 -0.429919 6.069905 
0.458796 49.281170 -10.661229 -4.310382 -1.141368 2.637168 0.000000 0.000000 0.000000 -0.252459 1.532668 1.514436 2.692014 0.712416 2.090047 5.675945 0.517574 0.234454 0.045738 8.943895 -2.808017 0.015075 5.141498 -20.352655 -5.709632 -3.624408 2.618825 -7.851254 -11.428153 -12.614090 -1.938103 -9.199194 -3.005774 4.417738 -20.324707 -8.058052 12.724918 5.561689 2.771775 -22.735888 -10.672256 -7.672664 4.624914 11.379895 6.722276 15.061217 -3.338809 13.185442 -12.194811 0.570567 -5.294902 8.865663 -7.011086 -3.921692 5.658513 3.510201 -6.054342 -8.110701 -0.466524 6.073250 
0.449985 49.279415 -10.659468 -4.309865 -1.121840 2.656696 0.000000 0.000000 0.000000 -0.244743 1.483877 1.484889 2.720716 0.692894 2.099810 5.706188 0.781244 0.224722 -0.007069 8.926748 -2.788713 0.019152 5.179206 -20.497612 -5.674623 -3.534827 2.618390 -8.098276 -11.268423 -12.563137 -1.900515 -9.133418 -2.975361 4.304579 -20.363304 -7.880934 12.701592 5.638782 2.772933 -22.725836 -10.483992 -7.906124 4.704665 11.373226 6.704014 15.036004 -3.321244 12.955626 -12.266768 0.560665 -5.235545 8.860838 -7.017143 -3.942961 5.676766 3.518973 -6.072201 -8.171262 -0.460115 6.055805 
0.448976 49.282318 -10.669900 -4.200410 -1.102382 2.598115 0.000000 0.000000 0.000000 -0.283552 1.493639 1.484889 2.683443 0.741689 2.099813 5.579068 0.566399 0.293051 0.070411 8.923398 -2.848123 -0.141151 5.337097 -20.466633 -6.139646 -3.427887 2.606500 -8.377255 -11.134472 -12.712538 -1.862738 -9.104133 -3.054080 4.330604 -20.338085 -7.963601 12.603951 5.634074 2.773996 -22.843500 -10.489723 -7.719171 4.471036 11.305634 6.560456 15.168330 -3.338633 13.090199 -12.300312 0.545644 -5.156488 8.635378 -7.084535 -3.914942 5.834050 3.471180 -5.994697 -8.132968 -0.459045 6.130722 
0.455272 49.279026 -10.664666 -4.260775 -1.141404 2.598113 0.000000 0.000000 0.000000 -0.254007 1.513171 1.475127 2.676257 0.868631 1.963257 5.685178 0.273433 0.332074 0.068536 9.040504 -2.799911 -0.190884 5.242677 -20.375921 -6.094672 -3.544216 2.616393 -8.036206 -10.904594 -13.041368 -1.801460 -8.893805 -2.983619 4.124302 -20.475756 -7.803741 12.659689 5.678055 2.782838 -22.832617 -10.531652 -7.935654 4.558262 11.383792 6.690572 15.239981 -3.398980 13.224531 -12.339463 0.556782 -5.173125 8.681370 -7.031075 -3.896259 5.926514 3.465358 -5.871750 -8.203338 -0.466883 6.138980 
0.461060 49.276779 -10.658112 -4.249871 -1.112128 2.607878 0.000000 0.000000 0.000000 -0.236232 1.464371 1.455601 2.666901 0.907701 1.904677 5.782939 0.341793 0.283256 0.050476 9.070705 -2.799913 -0.160041 5.345627 -20.302568 -6.230238 -3.561261 2.626009 -8.023835 -11.000372 -13.025599 -1.907698 -8.898358 -2.973821 4.162036 -20.353155 -7.796040 12.628014 5.725409 2.783151 -22.945282 -10.673737 -7.837970 4.636752 11.364869 6.730565 15.072013 -3.329587 12.893347 -12.290034 0.583858 -5.213218 8.676431 -7.036971 -3.907608 5.893960 3.490525 -6.077745 -8.246816 -0.457500 6.090445 
0.454263 49.270863 -10.670278 -4.081104 -1.092701 2.510054 0.000000 0.000000 0.000000 -0.331871 1.503395 1.494907 2.543531 0.673401 2.041219 5.793213 0.644528 0.195410 0.065300 8.689683 -2.954255 0.174490 5.353198 -20.245941 -6.216894 -3.638858 2.626068 -7.830425 -11.024756 -13.266524 -1.913162 -9.079974 -3.132669 4.243021 -20.382671 -7.806038 12.718747 5.688494 2.772715 -22.788895 -10.720625 -7.921652 4.506987 11.222731 6.513595 14.917032 -3.371858 13.308862 -12.200539 0.568614 -5.350373 8.401079 -7.171695 -3.958683 6.011960 3.510694 -5.815237 -8.269754 -0.452661 6.146709 
0.463577 49.281551 -10.651779 -4.161904 -1.131683 2.559059 0.000000 0.000000 0.000000 -0.292578 1.542464 1.465627 2.655066 0.800288 2.011931 5.529581 0.468745 0.273508 0.005744 8.907242 -2.877053 -0.126467 5.254429 -20.642534 -6.081985 -3.405715 2.606786 -7.903792 -11.275087 -13.082583 -1.965200 -8.981125 -3.063566 4.124596 -20.383533 -7.938429 12.829015 5.617804 2.781015 -22.373032 -11.173401 -8.295861 4.402772 11.315618 6.618769 15.296636 -3.329523 13.228732 -12.361322 0.562952 -5.148498 8.719834 -7.030749 -3.846453 5.620187 3.442742 -6.030028 -8.111552 -0.457937 6.141640 
0.463198 49.277157 -10.648217 -4.218679 -1.112213 2.510051 0.000000 0.000000 0.000000 -0.253749 1.513164 1.485147 2.588300 0.829547 2.051132 5.705472 0.458978 0.293038 0.064907 8.874652 -2.827311 -0.119918 5.251854 -20.808153 -6.255543 -3.256099 2.595687 -8.141442 -11.104861 -12.930231 -2.019625 -9.048018 -3.013741 4.243551 -20.339121 -7.951044 12.859242 5.617047 2.771215 -22.496565 -11.220832 -7.833731 4.666448 11.325492 6.677626 15.024603 -3.339989 13.032063 -12.316655 0.567043 -5.232924 8.738460 -7.039635 -3.887278 5.703297 3.474531 -5.983941 -8.186333 -0.459234 6.099317 
0.466848 49.272617 -10.639281 -4.199617 -1.131743 2.490713 0.000000 0.000000 0.000000 -0.263781 1.522940 1.465364 2.569525 0.858835 2.031607 5.695756 0.439447 0.312566 0.051328 8.963379 -2.838478 -0.149361 5.336874 -20.555050 -6.346665 -3.379742 2.615154 -7.912465 -11.156123 -13.033572 -1.991915 -9.019603 -3.033069 4.183043 -20.399477 -7.813276 12.846162 5.667519 2.780795 -22.512529 -11.188539 -8.089143 4.694920 11.354116 6.741215 14.924279 -3.368057 13.211047 -12.212509 0.609263 -5.373515 8.617123 -7.045913 -3.929251 5.914503 3.510491 -6.026898 -8.255364 -0.441335 6.076577 
0.465338 49.272240 -10.637421 -4.210655 -1.161012 2.490712 0.000000 0.000000 0.000000 -0.262282 1.581514 1.465633 2.645813 0.839356 1.953345 5.597201 0.351559 0.244196 -0.021004 8.947207 -2.817652 -0.181773 5.258534 -20.773739 -6.058939 -3.267807 2.606346 -8.252746 -11.228587 -12.467531 -2.012477 -9.097284 -3.015293 4.160976 -20.476992 -7.598411 12.851156 5.748196 2.791128 -22.560749 -10.915119 -8.129207 4.609135 11.347621 6.638402 15.122652 -3.330326 13.162923 -12.362420 0.576750 -5.294044 8.797632 -7.030524 -3.885416 5.608732 3.470632 -5.873690 -8.163813 -0.463154 6.129370 
0.473264 49.281055 -10.637596 -4.190728 -1.161029 2.471185 0.000000 0.000000 0.000000 -0.252346 1.620585 1.436353 2.636236 0.849121 1.943580 5.568154 0.341792 0.293022 -0.001192 9.014536 -2.798366 -0.277177 5.273227 -20.732668 -6.057720 -3.305799 2.596653 -8.099205 -11.154454 -12.927074 -2.002634 -8.971190 -2.994484 4.062508 -20.457115 -7.663866 12.813535 5.734382 2.781111 -22.687065 -11.039118 -8.291736 4.653788 11.281772 6.593756 14.985784 -3.301123 13.351419 -12.265339 0.596998 -5.304247 8.664825 -7.065498 -3.911981 5.819877 3.446514 -5.782280 -8.134399 -0.438344 6.172546 
0.474651 49.273247 -10.634009 -4.179537 -1.141541 2.441700 0.000000 0.000000 0.000000 -0.253864 1.581548 1.416824 2.598280 0.868626 1.973022 5.568923 0.410149 0.351623 0.041797 9.061416 -2.809554 -0.353239 5.245386 -20.769001 -6.117932 -3.260712 2.606059 -8.047610 -11.196495 -12.681659 -2.034921 -8.842396 -2.992915 3.898217 -20.389513 -7.585538 12.741849 5.799355 2.782841 -22.732521 -11.034977 -8.427264 4.623933 11.271213 6.601678 15.043483 -3.281204 13.164414 -12.324479 0.617070 -5.327366 8.649282 -7.068474 -3.912070 5.793739 3.460264 -5.968513 -8.195937 -0.450571 6.178627 
